<?xml version="1.0" encoding="utf-8"?>
<!-- Generator: Adobe Illustrator 24.0.1, SVG Export Plug-In . SVG Version: 6.00 Build 0)  -->
<svg version="1.1" id="Layer_1" xmlns="http://www.w3.org/2000/svg" xmlns:xlink="http://www.w3.org/1999/xlink" x="0px" y="0px"
	 viewBox="0 0 87.8 90" enable-background="new 0 0 87.8 90" xml:space="preserve">
<circle fill="#FFFFFF" cx="45.4" cy="48.6" r="34.4"/>
<g>
	<path fill="#E11A1B" d="M20.1,56.6c0,1.2-1.1,2.2-2.5,2.2c-1.4,0-2.5-1-2.5-2.2c0-1.2,1.1-2.2,2.5-2.2C19,54.4,20.1,55.4,20.1,56.6
		z"/>
	<path fill="#E11A1B" d="M74.7,56.6c0,1.2-1.1,2.2-2.5,2.2c-1.4,0-2.5-1-2.5-2.2c0-1.2,1.1-2.2,2.5-2.2
		C73.6,54.4,74.7,55.4,74.7,56.6z"/>
</g>
<g>
	<path fill="#3F3566" d="M79.1,48.8C79.1,67.6,63.7,83,44.9,83C26,83,10.7,67.6,10.7,48.8S26,14.6,44.9,14.6
		C63.7,14.6,79.1,29.9,79.1,48.8z M44.9,12.8c-19.8,0-36,16.1-36,36c0,19.8,16.1,36,36,36c19.9,0,36-16.2,36-36
		C80.9,28.9,64.7,12.8,44.9,12.8z"/>
</g>
<g>
	<path fill="#179BD7" d="M66.5,48.8c0,11.9-9.7,21.6-21.6,21.6c-11.9,0-21.6-9.7-21.6-21.6c0-11.9,9.7-21.6,21.6-21.6
		C56.8,27.2,66.5,36.9,66.5,48.8z M44.9,26c-12.6,0-22.8,10.2-22.8,22.8c0,12.6,10.2,22.8,22.8,22.8c12.6,0,22.8-10.2,22.8-22.8
		C67.7,36.2,57.4,26,44.9,26z"/>
</g>
<g>
	<path fill="#1D1D1B" d="M22,52l-8.4,0.8l-0.2-1.2l5.2-3l-5.6,0.5L12.7,48l8.4-0.8l0.2,1.2l-5.1,3l5.5-0.5L22,52z"/>
	<path fill="#1D1D1B" d="M12.7,45.6l0.2-1.2l4.6,0.3c0.7,0.1,1.2,0.1,1.4,0.1c0.4,0,0.6-0.1,0.9-0.3c0.2-0.2,0.4-0.4,0.4-0.8
		c0-0.4,0-0.6-0.2-0.8c-0.2-0.2-0.4-0.3-0.7-0.4c-0.3-0.1-0.8-0.1-1.4-0.2l-4.7-0.4l0.2-1.2l4.4,0.3c1,0.1,1.7,0.2,2.1,0.3
		c0.4,0.1,0.7,0.2,1,0.4c0.3,0.2,0.5,0.5,0.6,0.8c0.1,0.3,0.2,0.7,0.1,1.2c-0.1,0.6-0.2,1-0.5,1.3c-0.2,0.3-0.5,0.5-0.8,0.7
		s-0.6,0.2-1,0.3c-0.5,0-1.2,0-2.2,0L12.7,45.6z"/>
	<path fill="#1D1D1B" d="M14,38.2l1-2.3c0.2-0.5,0.4-0.8,0.5-1c0.2-0.2,0.4-0.4,0.6-0.5c0.2-0.1,0.5-0.2,0.9-0.3c0.3,0,0.7,0,1,0.1
		c0.4,0.1,0.7,0.3,0.9,0.5c0.2,0.2,0.4,0.5,0.4,0.8c0.3-0.3,0.7-0.5,1.1-0.6c0.4-0.1,0.9-0.1,1.3,0c0.4,0.1,0.7,0.3,1,0.5
		c0.3,0.2,0.5,0.5,0.6,0.7c0.1,0.3,0.1,0.6,0,0.9c-0.1,0.2-0.3,0.7-0.6,1.4l-0.9,2L14,38.2z M15.9,37.4l1.9,0.5l0.3-0.8
		c0.2-0.5,0.3-0.7,0.4-0.9c0.1-0.2,0-0.4-0.1-0.6c-0.1-0.2-0.3-0.3-0.6-0.3c-0.2-0.1-0.5-0.1-0.7,0c-0.2,0.1-0.4,0.2-0.5,0.4
		c-0.1,0.1-0.2,0.4-0.5,1L15.9,37.4z M19.1,38.3l2.2,0.6l0.5-1.1c0.2-0.4,0.3-0.7,0.3-0.8c0-0.2,0-0.4-0.1-0.5
		c-0.1-0.2-0.3-0.3-0.6-0.3C21,36,20.8,36,20.6,36c-0.2,0-0.4,0.1-0.5,0.3c-0.1,0.1-0.3,0.5-0.6,1L19.1,38.3z"/>
	<path fill="#1D1D1B" d="M17.4,31.7l0.7-1l1,0.4c0.4,0.2,0.7,0.3,0.9,0.5c0.2,0.2,0.3,0.3,0.4,0.6c0.1,0.2,0.1,0.5,0.1,0.7l-0.7,0
		c0.1-0.2,0-0.5-0.1-0.6c-0.1-0.2-0.3-0.3-0.6-0.4l-0.4,0.5L17.4,31.7z"/>
	<path fill="#1D1D1B" d="M24.2,32.7l0.7-1.1c0.3,0.1,0.6,0.1,0.8,0.1c0.3,0,0.5-0.2,0.7-0.4c0.2-0.2,0.4-0.5,0.4-0.7
		c0-0.1-0.1-0.2-0.2-0.3c-0.1-0.1-0.2-0.1-0.3-0.1c-0.1,0-0.3,0.1-0.5,0.2c-1,0.6-1.7,1-2,1.1c-0.5,0.1-1,0.1-1.5-0.2
		c-0.4-0.2-0.7-0.6-0.7-1c-0.1-0.4,0.2-0.9,0.7-1.4c0.5-0.5,0.9-0.8,1.4-0.9C24,28,24.5,28,25,28.2l-0.6,1c-0.2-0.1-0.4-0.1-0.7,0
		c-0.2,0-0.4,0.2-0.6,0.4c-0.2,0.2-0.4,0.5-0.4,0.6c0,0.1,0.1,0.2,0.2,0.3c0.1,0.1,0.2,0.1,0.3,0c0.2,0,0.6-0.3,1.2-0.7
		c0.6-0.4,1.2-0.7,1.6-0.7c0.4-0.1,0.8,0,1.3,0.3c0.5,0.3,0.7,0.6,0.8,1.1c0.1,0.5-0.2,1-0.7,1.5c-0.5,0.5-1,0.8-1.5,0.9
		C25.3,32.9,24.8,32.9,24.2,32.7z"/>
	<path fill="#1D1D1B" d="M27.1,22.6l2.7-1.3c0.5-0.3,1-0.4,1.3-0.5c0.3-0.1,0.6-0.1,0.9-0.1c0.3,0,0.6,0.1,0.9,0.2
		c0.3,0.1,0.5,0.3,0.7,0.6c0.2,0.3,0.3,0.5,0.3,0.8c0,0.3-0.1,0.6-0.3,0.8c0.5-0.1,0.9-0.1,1.4,0.1c0.4,0.1,0.7,0.4,1,0.7
		c0.2,0.3,0.3,0.5,0.4,0.8c0,0.3,0,0.6-0.1,0.9c-0.1,0.3-0.4,0.5-0.7,0.7c-0.2,0.1-0.8,0.4-1.6,0.8l-2.3,1.1L27.1,22.6z M29.2,22.9
		l1,1.3l0.9-0.4c0.5-0.3,0.9-0.4,1-0.5c0.2-0.1,0.4-0.3,0.4-0.5c0-0.2,0-0.4-0.1-0.5c-0.1-0.2-0.3-0.3-0.5-0.3c-0.2-0.1-0.4,0-0.7,0
		c-0.1,0.1-0.5,0.2-1.2,0.5L29.2,22.9z M31,25.1l1.2,1.5l1.3-0.6c0.5-0.2,0.8-0.4,0.9-0.5c0.2-0.1,0.3-0.3,0.3-0.5
		c0-0.2,0-0.4-0.2-0.6c-0.1-0.2-0.3-0.3-0.5-0.4c-0.2-0.1-0.4-0.1-0.6-0.1c-0.2,0-0.7,0.2-1.3,0.5L31,25.1z"/>
	<path fill="#1D1D1B" d="M38.2,25.4l-2.5-6.2l1.5-0.4l2.5,6.2L38.2,25.4z"/>
	<path fill="#1D1D1B" d="M40.1,22.4c0-0.4,0-0.8,0.2-1.2c0.2-0.4,0.5-0.7,1-1c0.4-0.2,0.9-0.4,1.5-0.4c0.9-0.1,1.6,0.1,2.2,0.6
		c0.6,0.4,0.9,1,1,1.7c0.1,0.7-0.1,1.3-0.7,1.8c-0.5,0.5-1.2,0.8-2.1,0.8c-0.5,0-1,0-1.5-0.2c-0.5-0.2-0.9-0.4-1.2-0.8
		C40.3,23.4,40.2,22.9,40.1,22.4z M41.7,22.3c0,0.5,0.2,0.8,0.5,1.1c0.3,0.2,0.6,0.3,1,0.3c0.4,0,0.7-0.2,1-0.4
		c0.2-0.3,0.3-0.6,0.3-1.1c0-0.5-0.2-0.8-0.5-1c-0.3-0.2-0.6-0.3-1-0.3c-0.4,0-0.7,0.2-1,0.4C41.7,21.5,41.6,21.9,41.7,22.3z"/>
	<path fill="#1D1D1B" d="M47.3,22.1c0.1-0.4,0.4-0.8,0.7-1.1c0.4-0.3,0.8-0.6,1.3-0.7c0.5-0.1,1-0.1,1.6,0c0.9,0.2,1.5,0.5,1.9,1.1
		c0.4,0.6,0.5,1.2,0.3,1.9c-0.2,0.7-0.7,1.2-1.4,1.6c-0.7,0.4-1.5,0.5-2.3,0.3c-0.5-0.1-1-0.3-1.4-0.6s-0.7-0.6-0.8-1
		C47.1,23.1,47.2,22.6,47.3,22.1z M48.8,22.4c-0.1,0.5-0.1,0.8,0.1,1.1c0.2,0.3,0.5,0.5,0.9,0.5c0.4,0.1,0.8,0,1.1-0.2
		c0.3-0.2,0.6-0.5,0.7-1c0.1-0.5,0.1-0.8-0.1-1.1c-0.2-0.3-0.5-0.5-0.9-0.5c-0.4-0.1-0.8,0-1.1,0.2C49.2,21.6,49,22,48.8,22.4z"/>
	<path fill="#1D1D1B" d="M57.6,27.8l-1.2-0.6l0.5-0.6c-0.4,0.1-0.8,0.2-1.1,0.2c-0.4,0-0.7-0.1-1-0.2c-0.6-0.3-0.9-0.7-1-1.2
		c-0.1-0.6,0.1-1.2,0.6-1.9c0.5-0.7,1.1-1.1,1.8-1.3c0.7-0.2,1.3-0.1,1.9,0.1c0.6,0.3,0.9,0.7,1,1.2l1.5-2l1.3,0.6L57.6,27.8z
		 M55.7,24.1c-0.3,0.4-0.5,0.8-0.5,1c0,0.4,0.2,0.7,0.6,0.8c0.3,0.1,0.6,0.1,1,0c0.4-0.1,0.7-0.4,1-0.8c0.4-0.5,0.5-0.9,0.5-1.2
		c-0.1-0.3-0.2-0.5-0.6-0.7c-0.3-0.1-0.7-0.2-1,0C56.3,23.4,56,23.7,55.7,24.1z"/>
	<path fill="#1D1D1B" d="M60.5,29.8l6.7-4.1l3.4,3.3l-1.1,0.7L67,27.4l-1.6,1l2.1,2l-1.1,0.7l-2.1-2l-2.8,1.7L60.5,29.8z"/>
	<path fill="#1D1D1B" d="M64.9,34.8l-0.7-1l5.5-2.2l0.7,1l-0.8,0.3c0.5,0,0.8,0.1,1,0.2c0.2,0.1,0.4,0.2,0.5,0.4
		c0.2,0.2,0.2,0.5,0.2,0.8l-1.5,0.2c0-0.2,0-0.4-0.1-0.6c-0.1-0.1-0.2-0.2-0.4-0.3c-0.2-0.1-0.4-0.1-0.8,0c-0.3,0.1-1,0.3-1.9,0.7
		L64.9,34.8z"/>
	<path fill="#1D1D1B" d="M66.1,36.6l5.7-1.7l0.6,1.1l-5.7,1.7L66.1,36.6z M72.6,34.7l1.4-0.4l0.6,1.1l-1.4,0.4L72.6,34.7z"/>
	<path fill="#1D1D1B" d="M69.8,40.8l0.1,1.2c-0.6,0-1.1-0.2-1.5-0.5c-0.4-0.3-0.7-0.6-0.8-1.1c-0.2-0.8-0.1-1.4,0.5-1.9
		c0.5-0.4,1.1-0.7,1.9-0.8c1-0.2,1.8-0.1,2.5,0.1c0.7,0.3,1.1,0.7,1.3,1.3c0.2,0.6,0.1,1.2-0.4,1.7c-0.5,0.5-1.3,0.8-2.5,1L69.9,39
		c-0.5,0.1-0.8,0.3-1,0.5c-0.2,0.2-0.3,0.5-0.2,0.7c0.1,0.2,0.2,0.3,0.3,0.4C69.2,40.8,69.5,40.8,69.8,40.8z M71.4,40.6
		c0.5-0.1,0.8-0.2,1-0.4c0.2-0.2,0.2-0.4,0.2-0.7c-0.1-0.3-0.3-0.4-0.6-0.6s-0.7-0.1-1.1-0.1L71.4,40.6z"/>
	<path fill="#1D1D1B" d="M68.6,47.1l-0.1-1.2l3.1-0.1c0.7,0,1.1-0.1,1.3-0.1c0.2-0.1,0.3-0.1,0.4-0.3c0.1-0.1,0.1-0.3,0.1-0.4
		c0-0.2-0.1-0.4-0.3-0.5c-0.2-0.2-0.4-0.3-0.6-0.3c-0.3-0.1-0.7-0.1-1.4,0l-2.8,0.1l-0.1-1.2l6.2-0.2l0.1,1.1l-0.9,0
		c0.7,0.4,1.1,0.8,1.1,1.4c0,0.3,0,0.5-0.2,0.7c-0.1,0.2-0.3,0.4-0.5,0.5c-0.2,0.1-0.4,0.2-0.7,0.3c-0.3,0.1-0.6,0.1-1.1,0.1
		L68.6,47.1z"/>
	<path fill="#1D1D1B" d="M67.8,52.1L68,51l0.9,0.1c-0.3-0.2-0.5-0.5-0.7-0.7c-0.1-0.3-0.2-0.5-0.1-0.8c0.1-0.5,0.5-0.9,1.1-1.2
		c0.6-0.3,1.5-0.4,2.5-0.3c1,0.1,1.8,0.4,2.3,0.8c0.5,0.4,0.7,0.9,0.6,1.4c-0.1,0.5-0.5,0.9-1.1,1.2l3,0.3L76.2,53L67.8,52.1z
		 M71.5,49.3c-0.7-0.1-1.1-0.1-1.4,0c-0.5,0.1-0.7,0.4-0.8,0.7c-0.1,0.3,0.1,0.5,0.3,0.7c0.3,0.2,0.7,0.4,1.4,0.4
		c0.7,0.1,1.2,0,1.6-0.1c0.3-0.1,0.5-0.4,0.6-0.7c0.1-0.3-0.1-0.5-0.3-0.7C72.6,49.5,72.1,49.4,71.5,49.3z"/>
</g>
<g>
	<path fill="#C91517" d="M52,48.5c-0.2,0.4-0.4,0.8-0.6,1.1c-0.3,0.4-0.6,0.7-0.9,1.1c-0.3,0.4-0.8,0.7-1.2,1.1
		c-0.5,0.4-1.1,0.7-1.7,0.9c-0.6,0.3-1.3,0.5-2,0.5c-0.6,0-1.2,0.1-1.7,0.1c-1.1-0.1-2.2-0.4-3.2-0.9c-0.7-0.4-1.4-0.8-1.9-1.3
		c-0.7-0.7-1.3-1.4-1.7-2.3c-0.3-0.6-0.5-1.1-0.5-1.7c-0.1-0.6,0-1.1,0-1.7c0-0.5,0.2-1.1,0.3-1.6c0.2-0.7,0.5-1.3,0.8-1.9
		c0.2-0.4,0.4-0.8,0.7-1.2c0.5-0.7,0.9-1.4,1.4-2.1c0.4-0.6,0.8-1.2,1.2-1.8c0.2-0.3,0.4-0.6,0.6-0.9c0.2-0.4,0.5-0.8,0.7-1.2
		c0.2-0.4,0.4-0.8,0.6-1.2c0.3-0.6,0.6-1.2,0.8-1.9c0.2-0.6,0.4-1.2,0.5-1.8c0.1-0.2,0.1-0.5,0.1-0.7c0.6,3,1.8,5.7,3.9,8.2
		c-0.3,0.5-0.6,0.9-0.9,1.4c-0.7,1-1.4,2.1-1.9,3.2c-0.3,0.8-0.4,1.6-0.3,2.4c0.1,0.7,0.3,1.3,0.7,1.9c0.2,0.3,0.5,0.7,0.8,1
		c0.4,0.4,0.9,0.7,1.4,1c0.6,0.3,1.2,0.5,1.8,0.6c0.5,0.1,1,0.1,1.6,0C51.5,48.5,51.7,48.5,52,48.5z"/>
	<linearGradient id="SVGID_1_" gradientUnits="userSpaceOnUse" x1="45.4355" y1="55.1124" x2="64.788" y2="55.1124">
		<stop  offset="0" style="stop-color:#9ED9F8"/>
		<stop  offset="1" style="stop-color:#0073BC"/>
	</linearGradient>
	<path fill="url(#SVGID_1_)" d="M64.8,45.5c0,0.3,0,0.6,0,0.9c0,0.5,0,0.9,0,1.4c0,0.5,0,0.9,0,1.4c0,0.6-0.1,1.1-0.2,1.7
		c-0.1,0.6-0.2,1.2-0.3,1.8c-0.1,0.5-0.3,1.1-0.4,1.6c-0.3,0.8-0.5,1.6-1,2.3c-0.3,0.5-0.7,1-1.1,1.4c-0.4,0.3-0.7,0.7-1.2,1
		c-0.3,0.3-0.7,0.5-1.1,0.7c-0.5,0.3-1,0.6-1.5,0.9c-0.6,0.3-1.3,0.6-1.9,0.9c-0.5,0.3-1.1,0.5-1.7,0.8c-0.5,0.2-1.1,0.4-1.6,0.6
		c-0.4,0.2-0.9,0.3-1.3,0.4c-0.4,0.1-0.8,0.3-1.2,0.4c-0.4,0.1-0.7,0.2-1.1,0.3c-0.8,0.2-1.6,0.3-2.4,0.5c-0.4,0.1-0.7,0.1-1.1,0.2
		c0,0-0.1,0-0.2,0c0-0.2,0-0.4,0.1-0.6c0.1-0.4,0.1-0.7,0.2-1.1c0.2-0.7,0.4-1.4,0.7-2c0.3-0.6,0.7-1.2,1.1-1.7
		c0.3-0.4,0.7-0.8,1-1.2c0.3-0.3,0.7-0.7,1-1c0.4-0.4,0.9-0.7,1.4-1.1c0.7-0.5,1.4-0.9,2.1-1.4c0.5-0.3,0.9-0.7,1.3-1
		c0.3-0.2,0.5-0.5,0.8-0.7c0.5-0.5,0.9-0.9,1.4-1.4c0.1,0.2,0.3,0.4,0.4,0.6c0.1,0.3,0.1,0.6,0.2,0.8c0,0.4-0.2,0.8-0.3,1.2
		c-0.1,0.3-0.3,0.6-0.5,0.9c-0.2,0.3-0.4,0.5-0.6,0.7c-0.4,0.4-0.8,0.7-1.2,1.1c0,0,0,0,0,0.1c0.4-0.2,0.8-0.4,1.1-0.6
		c0.5-0.3,0.9-0.6,1.3-1c0.6-0.5,1.2-1.2,1.6-1.8c0.4-0.7,0.8-1.4,1-2.1c0.1-0.3,0.1-0.6,0.2-0.9c0.1-0.8,0.3-1.7,0.9-2.4
		c0.4-0.4,0.8-0.7,1.4-0.9c0,0.2,0,0.5,0,0.7c0,0.1,0,0.1,0,0.2c0,0.5,0,1-0.1,1.5c-0.1,0.6-0.1,1.2-0.2,1.8
		c-0.2,1.1-0.4,2.1-0.8,3.1c-0.2,0.6-0.4,1.1-0.8,1.6c0,0.1-0.1,0.1-0.1,0.2c0,0,0,0,0.1,0c0.1-0.1,0.2-0.2,0.3-0.3
		c0.4-0.5,0.6-1,0.9-1.6c0.3-0.8,0.6-1.6,0.7-2.5c0.1-0.5,0.2-1.1,0.3-1.6c0.1-0.5,0.1-1,0.2-1.5c0.1-0.5,0.1-0.9,0.1-1.4
		c0.1-0.6,0.2-1.2,0.7-1.6c0.4-0.3,0.8-0.6,1.4-0.6C64.7,45.5,64.7,45.5,64.8,45.5z"/>
	<linearGradient id="SVGID_2_" gradientUnits="userSpaceOnUse" x1="44.2119" y1="55.1066" x2="24.868" y2="55.1066">
		<stop  offset="0" style="stop-color:#9ED9F8"/>
		<stop  offset="1" style="stop-color:#0073BC"/>
	</linearGradient>
	<path fill="url(#SVGID_2_)" d="M24.9,45.5c0.8,0,1.4,0.3,1.8,0.8c0.3,0.5,0.5,1,0.5,1.5c0,0.5,0.1,1,0.2,1.5c0,0.4,0.1,0.9,0.2,1.3
		c0.1,0.5,0.2,1.1,0.3,1.6c0.2,0.8,0.4,1.6,0.7,2.4c0.2,0.6,0.6,1.1,1,1.7c0,0,0.1,0.1,0.2,0.1c0,0,0.1,0,0.1,0c0,0,0-0.1,0-0.1
		c-0.4-0.5-0.6-1.1-0.8-1.7c-0.2-0.6-0.4-1.2-0.5-1.8c-0.1-0.5-0.2-1-0.2-1.5c-0.1-0.5-0.1-1.1-0.2-1.6c0-0.3-0.1-0.7-0.1-1
		c0-0.4-0.1-0.9-0.1-1.3c0,0,0-0.1,0-0.1c0.4,0,0.8,0.2,1.1,0.5c0.6,0.5,0.9,1.1,1.1,1.7c0.1,0.4,0.1,0.8,0.2,1.2
		c0.1,0.7,0.3,1.3,0.6,2c0.3,0.6,0.6,1.2,1.1,1.7c0.3,0.4,0.7,0.7,1.1,1.1c0.5,0.5,1.1,0.9,1.7,1.3c0.2,0.1,0.4,0.2,0.6,0.3
		c0,0,0-0.1-0.1-0.1c-0.6-0.4-1.1-0.9-1.5-1.5c-0.4-0.5-0.7-1.1-0.9-1.7c-0.2-0.6-0.1-1.1,0.2-1.6c0.1-0.1,0.2-0.3,0.3-0.4
		c0.1,0,0.1,0.1,0.1,0.1c0.6,0.7,1.2,1.3,1.9,1.9c0.6,0.5,1.3,1,1.9,1.5c0.7,0.4,1.3,0.9,2,1.3c0.5,0.3,0.9,0.7,1.3,1
		c0.5,0.5,1,0.9,1.4,1.4c0.3,0.4,0.6,0.8,0.9,1.2c0.3,0.6,0.6,1.1,0.9,1.7c0.2,0.5,0.3,1.1,0.5,1.6c0.1,0.4,0.1,0.8,0.2,1.1
		c0,0.1,0,0.1-0.1,0.1c-0.9-0.2-1.8-0.3-2.7-0.5c-1.3-0.2-2.5-0.6-3.8-1c-0.7-0.2-1.4-0.5-2-0.8c-1.1-0.5-2.1-1-3.2-1.5
		c-1-0.5-1.9-1-2.7-1.5c-0.7-0.5-1.3-1-1.8-1.5c-0.5-0.5-0.8-1-1.2-1.5c-0.4-0.7-0.7-1.4-0.9-2.1c-0.2-0.6-0.3-1.2-0.5-1.8
		c-0.1-0.4-0.1-0.8-0.2-1.3C25.1,50.7,25,50.4,25,50c0-0.2,0-0.3,0-0.5c0-0.4,0-0.7,0-1.1c0-0.9,0-1.8,0-2.7
		C24.9,45.6,24.9,45.6,24.9,45.5z"/>
	<path fill="#C91517" d="M50.5,33.4c0,0.2,0.1,0.4,0.1,0.5c0.2,0.5,0.3,1,0.5,1.5c0.2,0.5,0.4,1,0.7,1.5c0.4,0.7,0.9,1.3,1.4,1.9
		c0.2,0.3,0.4,0.6,0.6,0.9c0.4,0.7,0.9,1.4,1.1,2.1c0.1,0.4,0.2,0.7,0.3,1.1c0.1,0.3,0.1,0.6,0.1,0.8c0,1-0.4,1.9-1.2,2.6
		c-0.4,0.5-1,0.8-1.6,1.1c-0.8,0.3-1.6,0.5-2.4,0.4c-0.9-0.1-1.7-0.3-2.4-0.8c-0.7-0.4-1.2-1-1.5-1.6c-0.2-0.4-0.4-0.9-0.4-1.3
		c-0.1-1.1,0.2-2,0.6-3c0.4-0.9,1.1-1.7,1.6-2.6c0.3-0.5,0.7-1,1-1.5c0.5-0.9,1-1.8,1.2-2.8C50.4,34,50.5,33.7,50.5,33.4z
		 M49.9,45.3c0.5,0,0.9,0,1.4,0c0-0.5,0-1,0-1.5c0.6,0,1.2,0,1.7,0c0-0.4,0-0.8,0-1.2c-0.6,0-1.1,0-1.7,0c0,0,0-0.1,0-0.1
		c0-0.4,0-0.8,0-1.2c0-0.1,0-0.2-0.2-0.2c-0.3,0-0.6,0-0.9,0c-0.3,0-0.3,0-0.3,0.3c0,0.4,0,0.8,0,1.3c-0.6,0-1.2,0-1.8,0
		c0,0.2,0,0.3,0,0.4c0,0.1,0,0.2,0,0.3c0,0.1,0,0.2,0,0.3c0,0.2,0.1,0.2,0.2,0.2c0.5,0,1,0,1.5,0C49.9,44.3,49.9,44.8,49.9,45.3z"/>
	<g>
		<g>
			<path fill="#C91517" d="M35,43.4c0,0.5-0.4,0.9-1.1,0.9c-0.6,0-1.1-0.4-1.1-0.9c0-0.5,0.5-0.9,1-0.9C34.5,42.4,35,42.8,35,43.4z"
				/>
			<path fill="#C91517" d="M33.9,39.5c0.1,0.5-0.5,0.9-1,0.9c-0.6,0-1.1-0.4-1.1-1c0-0.5,0.5-0.9,1.1-0.9
				C33.4,38.5,33.9,38.9,33.9,39.5z"/>
			<path fill="#C91517" d="M54.8,48.3c0.5-0.1,1,0.4,0.9,0.8c0,0.5-0.4,0.8-1,0.8c-0.5,0-0.9-0.4-0.9-0.8
				C53.9,48.6,54.3,48.2,54.8,48.3z"/>
			<path fill="#C91517" d="M45.9,55.8c-0.5,0.1-0.8-0.4-0.8-0.7c0-0.3,0.3-0.7,0.8-0.7c0.4,0,0.8,0.3,0.8,0.7
				C46.6,55.5,46.3,55.8,45.9,55.8z"/>
			<path fill="#C91517" d="M36.3,40c0.4,0,0.8,0.2,0.7,0.6c0,0.4-0.3,0.6-0.8,0.6c-0.4,0-0.7-0.3-0.7-0.6C35.6,40.3,35.9,40,36.3,40
				z"/>
			<path fill="#C91517" d="M35.2,51.7c-0.4,0-0.7-0.2-0.7-0.6c0-0.3,0.3-0.6,0.7-0.6c0.4,0,0.7,0.3,0.7,0.6
				C35.9,51.5,35.6,51.7,35.2,51.7z"/>
			<path fill="#C91517" d="M31.1,42.9c-0.5,0-0.7-0.2-0.7-0.6c0-0.3,0.3-0.6,0.7-0.6c0.4,0,0.7,0.3,0.7,0.6
				C31.7,42.6,31.5,42.9,31.1,42.9z"/>
			<path fill="#C91517" d="M42.7,56.6c0.3,0,0.6,0.3,0.6,0.5c0,0.3-0.3,0.6-0.6,0.6c-0.3,0-0.6-0.2-0.6-0.6
				C42.1,56.8,42.4,56.6,42.7,56.6z"/>
			<path fill="#C91517" d="M44.7,60.4c-0.4,0-0.7-0.2-0.6-0.5c0-0.4,0.2-0.5,0.6-0.6c0.4,0,0.6,0.2,0.6,0.5
				C45.4,60.2,45.1,60.4,44.7,60.4z"/>
			<path fill="#C91517" d="M45.8,57.8c0-0.2,0.3-0.5,0.6-0.5c0.4,0,0.6,0.3,0.6,0.6c0,0.3-0.4,0.6-0.6,0.5
				C46.1,58.3,45.8,58.2,45.8,57.8z"/>
			<path fill="#C91517" d="M34.8,47.1c-0.3,0-0.6-0.2-0.6-0.5c0-0.3,0.4-0.5,0.6-0.5c0.4,0,0.6,0.2,0.6,0.5
				C35.4,46.8,35.1,47.1,34.8,47.1z"/>
			<path fill="#C91517" d="M55.7,46.3c0.3,0,0.5,0.2,0.5,0.5c0,0.3-0.2,0.5-0.5,0.5c-0.3,0-0.5-0.2-0.5-0.5
				C55.2,46.4,55.4,46.3,55.7,46.3z"/>
			<path fill="#C91517" d="M35.1,49.1c0,0.3-0.2,0.4-0.5,0.5c-0.3,0-0.5-0.2-0.5-0.5c0-0.3,0.2-0.5,0.6-0.5
				C34.9,48.6,35.1,48.8,35.1,49.1z"/>
			<path fill="#C91517" d="M37.7,53.6c0-0.2,0.2-0.5,0.5-0.4c0.3,0,0.6,0.2,0.5,0.5c0,0.3-0.2,0.4-0.5,0.5
				C38,54.1,37.7,53.9,37.7,53.6z"/>
			<path fill="#C91517" d="M32.3,46.1c0,0.3-0.2,0.5-0.5,0.5c-0.3,0-0.5-0.2-0.5-0.4c0-0.3,0.2-0.5,0.5-0.5
				C32.1,45.7,32.3,45.8,32.3,46.1z"/>
			<path fill="#C91517" d="M52.7,53.3c-0.3,0-0.6-0.2-0.6-0.4c0-0.3,0.2-0.5,0.5-0.4c0.3,0,0.5,0.2,0.5,0.4
				C53.2,53.1,53,53.3,52.7,53.3z"/>
			<path fill="#C91517" d="M49.6,52.7c0.3,0,0.5,0.2,0.5,0.4c0,0.2-0.2,0.4-0.5,0.4c-0.3,0-0.5-0.2-0.5-0.4
				C49,52.9,49.2,52.7,49.6,52.7z"/>
			<path fill="#C91517" d="M32.6,48.6c-0.3,0-0.5-0.2-0.5-0.4c0-0.3,0.2-0.5,0.5-0.5c0.2,0,0.5,0.2,0.5,0.4
				C33.1,48.4,32.9,48.6,32.6,48.6z"/>
			<path fill="#C91517" d="M41.4,54c0.3,0,0.5,0.2,0.5,0.4c0,0.2-0.2,0.4-0.5,0.4c-0.3,0-0.5-0.2-0.5-0.4C40.9,54.3,41.1,54,41.4,54
				z"/>
			<path fill="#C91517" d="M54.3,51.7c-0.3,0-0.4-0.1-0.4-0.3c0-0.2,0.2-0.4,0.4-0.4c0.2,0,0.4,0.2,0.4,0.4
				C54.7,51.6,54.6,51.7,54.3,51.7z"/>
			<path fill="#C91517" d="M56.6,50.2c0,0.1-0.1,0.2-0.3,0.3c-0.2,0-0.3-0.1-0.3-0.3c0-0.2,0.1-0.3,0.3-0.3
				C56.5,49.9,56.6,50,56.6,50.2z"/>
			<path fill="#C91517" d="M49.5,54.9c0.2,0,0.3,0.1,0.3,0.3c0,0.1-0.1,0.2-0.3,0.2c-0.2,0-0.3-0.1-0.3-0.2
				C49.2,55,49.3,54.9,49.5,54.9z"/>
		</g>
	</g>
	<path fill="#FFFFFF" d="M49.9,45.3c0-0.5,0-1,0-1.5c-0.5,0-1,0-1.5,0c-0.2,0-0.3,0-0.2-0.2c0-0.1,0-0.2,0-0.3c0-0.1,0-0.2,0-0.3
		c0-0.1,0-0.3,0-0.4c0.6,0,1.2,0,1.8,0c0-0.4,0-0.9,0-1.3c0-0.3,0-0.3,0.3-0.3c0.3,0,0.6,0,0.9,0c0.2,0,0.2,0.1,0.2,0.2
		c0,0.4,0,0.8,0,1.2c0,0,0,0.1,0,0.1c0.6,0,1.1,0,1.7,0c0,0.4,0,0.8,0,1.2c-0.6,0-1.1,0-1.7,0c0,0.5,0,1,0,1.5
		C50.9,45.3,50.4,45.3,49.9,45.3z"/>
</g>
</svg>
